<svg width="548" height="770" viewBox="0 0 548 770" fill="none" xmlns="http://www.w3.org/2000/svg">
<ellipse cx="102.444" cy="80.7963" rx="102.444" ry="80.7963" transform="matrix(0.533477 0.845814 -0.99968 -0.0252936 393.847 141.61)" fill="#C877AD"/>
<path d="M283.052 147.691L311.447 128.701L307.809 132.077L304.945 134.965L302.759 137.786L300.898 141.122L283.052 147.691Z" fill="#C877AD"/>
<path d="M455.265 301.856L473.48 290.728L470.834 291.676L465.541 293.572L459.503 294.857L458.578 297.964L455.265 301.856Z" fill="#C877AD"/>
<ellipse cx="102.444" cy="80.7963" rx="102.444" ry="80.7963" transform="matrix(0.533477 0.845814 -0.99968 -0.0252936 420.342 124.182)" fill="#EAB7E8"/>
<ellipse cx="91.6708" cy="72.2999" rx="91.6708" ry="72.2999" transform="matrix(0.533477 0.845814 -0.99968 -0.0252936 417.595 133.078)" fill="#C877AD"/>
<ellipse cx="102.444" cy="80.7963" rx="102.444" ry="80.7963" transform="matrix(0.786887 -0.617097 0.0769698 0.997033 90.5801 151.888)" fill="#68C066"/>
<path d="M107.948 261.482L86.1553 235.176L89.8854 238.45L93.0511 241.004L96.0803 242.891L99.5895 244.401L107.948 261.482Z" fill="#68C066"/>
<path d="M243.711 74.4195L230.781 57.4374L231.994 59.9728L234.421 65.0439L236.317 70.9193L239.501 71.5216L243.711 74.4195Z" fill="#68C066"/>
<ellipse cx="102.444" cy="80.7963" rx="102.444" ry="80.7963" transform="matrix(0.786887 -0.617097 0.0769698 0.997033 70.5332 127.31)" fill="#CEF9DA"/>
<ellipse cx="91.6708" cy="72.2999" rx="91.6708" ry="72.2999" transform="matrix(0.786887 -0.617097 0.0769698 0.997033 79.6631 129.134)" fill="#68C066"/>
<ellipse cx="102.444" cy="80.7963" rx="102.444" ry="80.7963" transform="matrix(0.988893 -0.148627 -0.424874 0.905253 284.946 564.378)" fill="#A39E9E"/>
<path d="M245.993 668.278L240.013 634.646L241.642 639.334L243.136 643.117L244.84 646.253L247.148 649.297L245.993 668.278Z" fill="#A39E9E"/>
<path d="M456.363 572.53L453.493 551.38L453.298 554.184L452.907 559.792L451.658 565.838L454.131 567.933L456.363 572.53Z" fill="#A39E9E"/>
<ellipse cx="102.444" cy="80.7963" rx="102.444" ry="80.7963" transform="matrix(0.988893 -0.148627 -0.424874 0.905253 279.633 533.113)" fill="#D9D9D9"/>
<ellipse cx="91.6708" cy="72.2999" rx="91.6708" ry="72.2999" transform="matrix(0.988893 -0.148627 -0.424874 0.905253 286.676 539.203)" fill="#A39E9E"/>
<ellipse cx="102.444" cy="80.7963" rx="102.444" ry="80.7963" transform="matrix(0.771148 0.636656 -0.957486 0.28848 368.884 311.298)" fill="#9B9CC2"/>
<path d="M265.542 351.709L286.577 324.793L284.177 329.138L282.359 332.777L281.164 336.139L280.439 339.89L265.542 351.709Z" fill="#9B9CC2"/>
<path d="M477.318 444.311L491.141 428.047L488.923 429.775L484.489 433.231L479.155 436.339L479.248 439.579L477.318 444.311Z" fill="#9B9CC2"/>
<ellipse cx="102.444" cy="80.7963" rx="102.444" ry="80.7963" transform="matrix(0.771148 0.636656 -0.957486 0.28848 388.604 286.459)" fill="#CBD1DF"/>
<ellipse cx="91.6708" cy="72.2999" rx="91.6708" ry="72.2999" transform="matrix(0.771148 0.636656 -0.957486 0.28848 388.775 295.77)" fill="#9B9CC2"/>
<ellipse cx="102.444" cy="80.7963" rx="102.444" ry="80.7963" transform="matrix(0.677967 -0.735092 0.235565 0.971859 98.9883 486.474)" fill="#716B6B"/>
<path d="M133.674 591.874L107.952 569.396L112.158 572.03L115.692 574.045L118.984 575.423L122.69 576.352L133.674 591.874Z" fill="#716B6B"/>
<path d="M237.745 385.493L222.263 370.8L223.867 373.108L227.074 377.726L229.886 383.222L233.126 383.307L237.745 385.493Z" fill="#716B6B"/>
<ellipse cx="102.444" cy="80.7963" rx="102.444" ry="80.7963" transform="matrix(0.677967 -0.735092 0.235565 0.971859 75.2666 465.422)" fill="#CECDCD"/>
<ellipse cx="91.6708" cy="72.2999" rx="91.6708" ry="72.2999" transform="matrix(0.677967 -0.735092 0.235565 0.971859 84.5723 465.761)" fill="#716B6B"/>
<g opacity="0.2" filter="url(#filter0_f_122_237)">
<ellipse cx="300.571" cy="740.129" rx="187.37" ry="9.2012" fill="#303030"/>
</g>
<defs>
<filter id="filter0_f_122_237" x="93.1258" y="710.853" width="414.891" height="58.553" filterUnits="userSpaceOnUse" color-interpolation-filters="sRGB">
<feFlood flood-opacity="0" result="BackgroundImageFix"/>
<feBlend mode="normal" in="SourceGraphic" in2="BackgroundImageFix" result="shape"/>
<feGaussianBlur stdDeviation="10.0377" result="effect1_foregroundBlur_122_237"/>
</filter>
</defs>
</svg>
