<svg width="287" height="41" viewBox="0 0 287 41" fill="none" xmlns="http://www.w3.org/2000/svg">
<path fill-rule="evenodd" clip-rule="evenodd" d="M82.6042 26.3001C82.6329 26.3288 82.6903 26.3575 82.7668 26.3671C82.8625 26.3862 82.9965 26.3958 83.1496 26.3958H84.4892V29.362H82.8051C82.231 29.362 81.743 29.295 81.3124 29.1515C80.8819 29.008 80.5183 28.7879 80.2312 28.4913C80.059 28.3095 79.9155 28.1085 79.8006 27.8885C79.7337 27.7449 79.6667 27.6014 79.6188 27.4387C79.437 27.6205 79.2457 27.8023 79.0447 27.965C78.7672 28.1851 78.4706 28.3956 78.1453 28.5774C77.5808 28.8931 76.9492 29.1419 76.2508 29.3142C75.581 29.4768 74.8538 29.5629 74.05 29.5629C73.1219 29.5629 72.2607 29.4385 71.4952 29.2089C70.7106 28.9697 70.0313 28.6157 69.4667 28.1564C68.8831 27.6875 68.4333 27.1134 68.1272 26.4436C67.8305 25.793 67.6679 25.0562 67.6679 24.2525C67.6679 23.3817 67.8305 22.5971 68.1559 21.9082C68.4812 21.2193 68.9692 20.626 69.6007 20.138C70.2035 19.6788 70.9403 19.3343 71.811 19.0951C72.653 18.8654 73.629 18.7506 74.7102 18.7506H79.3892V18.1C79.3892 17.545 79.3031 17.0474 79.1404 16.6169C78.9777 16.1863 78.729 15.8227 78.4036 15.5356C78.0688 15.239 77.6573 15.0094 77.1597 14.8563C76.6622 14.7032 76.0881 14.6171 75.4374 14.6171C74.8538 14.6171 74.3275 14.684 73.8682 14.7989C73.3898 14.9233 72.9784 15.1051 72.6243 15.3443C72.2894 15.5739 72.0024 15.8514 71.7919 16.1767C71.5718 16.502 71.4187 16.8752 71.3326 17.2771L71.2082 17.8703H68.1463L68.2611 17.0283C68.3759 16.2054 68.6343 15.4591 69.0266 14.8084C69.4189 14.1386 69.9547 13.5741 70.5958 13.1053C71.2273 12.6555 71.9641 12.3015 72.787 12.0719C73.6003 11.8422 74.4997 11.7178 75.4853 11.7178C76.5761 11.7178 77.5425 11.8614 78.3941 12.1388C79.2552 12.4163 80.0016 12.8469 80.6044 13.3923C81.2168 13.9568 81.6856 14.6458 82.0014 15.4495C82.3076 16.2437 82.4702 17.1527 82.4702 18.1669V25.6112C82.4702 25.8217 82.4798 25.9843 82.5085 26.1087C82.5276 26.214 82.5659 26.281 82.5946 26.3192L82.6042 26.3001ZM44.9142 29.5629H42.5029V5.74714H45.8997L54.119 24.6926L62.2809 5.74714H65.6489V29.5629H62.5105V12.8756L55.3342 29.5629H52.8177L45.6414 12.8756V29.5629H44.9237H44.9142ZM78.0018 25.4485C78.4515 25.0562 78.7959 24.5682 79.0256 24.0133C79.2552 23.4583 79.3796 22.8363 79.3796 22.157V21.602H74.5667C73.9065 21.602 73.3228 21.6594 72.8348 21.7838C72.3468 21.8986 71.945 22.0804 71.6292 22.3005C71.3421 22.5014 71.1316 22.7598 70.9881 23.066C70.8446 23.3722 70.768 23.7358 70.768 24.1376C70.768 24.5204 70.8446 24.8648 70.9785 25.1615C71.1221 25.4677 71.3326 25.7356 71.6005 25.9461C71.8971 26.1757 72.2607 26.3575 72.6913 26.4819C73.1123 26.6063 73.6099 26.6733 74.1553 26.6733C74.9686 26.6733 75.7053 26.5585 76.3369 26.3575C76.9971 26.147 77.5521 25.8313 77.9922 25.4389L78.0018 25.4485ZM86.0392 28.0416C85.3695 27.5344 84.8336 26.9125 84.4604 26.1757C84.0969 25.4581 83.8863 24.6448 83.8576 23.7262L83.8289 22.9607H86.9387L86.9769 23.6592C87.0057 24.1089 87.1205 24.5204 87.3118 24.884C87.5128 25.2476 87.7998 25.5633 88.1539 25.8217C88.5366 26.0992 89.015 26.3097 89.5604 26.4628C90.1058 26.6063 90.7278 26.6828 91.4071 26.6828C92.0004 26.6828 92.5553 26.6159 93.0433 26.4915C93.5409 26.3671 93.9715 26.1853 94.3255 25.9461C94.6317 25.7451 94.8709 25.4964 95.0336 25.2189C95.1867 24.951 95.2728 24.6543 95.2728 24.3386C95.2728 23.9176 95.1771 23.5827 95.0049 23.3243C94.8326 23.066 94.5743 22.865 94.2681 22.7119C93.8853 22.5206 93.4069 22.3866 92.8615 22.2718C92.3161 22.157 91.7038 22.0709 91.0531 21.9752C90.2015 21.8604 89.369 21.736 88.594 21.5542C87.8094 21.3724 87.0822 21.1427 86.4603 20.8078C85.7713 20.4442 85.1972 19.9658 84.7953 19.3439C84.3935 18.7219 84.1734 17.9469 84.1734 16.9805V16.9326C84.183 16.148 84.3648 15.4304 84.6997 14.7893C85.0441 14.1291 85.5513 13.555 86.1828 13.0861C86.7856 12.6364 87.5128 12.2919 88.3261 12.0527C89.1203 11.8231 90.0006 11.6987 90.9478 11.6987H91.0435C92.0195 11.6987 92.9285 11.8135 93.7514 12.0527C94.5647 12.2824 95.3015 12.6364 95.9234 13.0957C96.5454 13.555 97.0525 14.1291 97.4257 14.8084C97.7797 15.4591 98.0093 16.215 98.0859 17.0666L98.1624 17.8703H95.0718L94.9857 17.2292C94.9283 16.8274 94.8039 16.4638 94.6125 16.148C94.4116 15.8227 94.1533 15.5452 93.8279 15.3156C93.4835 15.0763 93.072 14.885 92.6032 14.7606C92.1343 14.6362 91.6176 14.5692 91.0435 14.5692C90.4407 14.5692 89.8953 14.6362 89.4169 14.751C88.9289 14.8754 88.5175 15.0476 88.1826 15.2677C87.886 15.4687 87.6563 15.6983 87.5032 15.9758C87.3597 16.2341 87.2736 16.5307 87.2736 16.8561C87.2736 17.6311 87.7137 18.0808 88.4122 18.3775C89.149 18.6836 90.1728 18.8272 91.254 18.9803L91.3306 18.9898C92.2204 19.1142 93.0816 19.2482 93.8853 19.4395C94.6891 19.6309 95.4354 19.8893 96.0669 20.2337C96.7654 20.6165 97.3396 21.114 97.7414 21.7742C98.1433 22.4249 98.3634 23.2286 98.3634 24.2333C98.3634 25.0275 98.1816 25.7547 97.8467 26.3958C97.4926 27.0656 96.9759 27.6397 96.3349 28.1181C95.7033 28.5774 94.9474 28.941 94.115 29.1802C93.2825 29.4194 92.364 29.5534 91.4071 29.5534C90.3163 29.5534 89.3021 29.429 88.4026 29.1706C87.5032 28.9219 86.709 28.5391 86.0488 28.0416H86.0392ZM101.626 28.2329C101.253 27.8502 100.976 27.3813 100.803 26.8168C100.631 26.2618 100.555 25.6207 100.555 24.8935V14.8467H97.5309V11.8805H100.555V7.40248H103.645V11.8805H107.96V14.8467H103.645V24.8553C103.645 25.171 103.664 25.4389 103.722 25.6495C103.77 25.8408 103.837 25.9843 103.942 26.0896C104.037 26.1853 104.181 26.2618 104.382 26.3097C104.592 26.3671 104.86 26.3862 105.186 26.3862H108.133V29.3524H105.061C104.286 29.3524 103.626 29.2663 103.061 29.0749C102.487 28.8931 102.019 28.6061 101.645 28.2234L101.626 28.2329ZM120.725 27.8885C120.055 28.4243 119.29 28.8453 118.447 29.1324C117.634 29.4098 116.754 29.5534 115.816 29.5534C114.582 29.5534 113.443 29.3333 112.419 28.9027C111.376 28.4721 110.467 27.8311 109.712 27.0177C108.975 26.214 108.391 25.2476 107.989 24.1281C107.606 23.0468 107.406 21.8317 107.406 20.5112C107.406 19.2482 107.606 18.0713 107.98 17.0187C108.362 15.9375 108.936 14.9807 109.654 14.1865C110.381 13.3923 111.262 12.7608 112.266 12.3302C113.242 11.9188 114.333 11.6891 115.51 11.6891C116.687 11.6891 117.778 11.8805 118.754 12.2632C119.739 12.646 120.6 13.2105 121.318 13.9473C122.026 14.6649 122.591 15.5452 122.983 16.5786C123.366 17.5641 123.586 18.6932 123.624 19.9467C123.634 20.0519 123.605 20.5016 123.595 20.6452V21.3819H110.563C110.611 22.1091 110.764 22.7789 110.994 23.3817C111.242 24.0324 111.587 24.6161 112.027 25.0945C112.467 25.5825 113.013 25.9652 113.635 26.2236C114.237 26.4723 114.917 26.6159 115.673 26.6159C116.247 26.6159 116.792 26.5297 117.29 26.3767C117.797 26.214 118.266 25.9748 118.668 25.6686C119.069 25.3624 119.414 24.9988 119.691 24.5682C119.969 24.1472 120.179 23.6688 120.313 23.1425L120.457 22.578H123.586L123.394 23.4774C123.203 24.3673 122.868 25.1997 122.418 25.9365C121.959 26.6828 121.385 27.3431 120.706 27.8885H120.725ZM112.218 15.9375C111.845 16.2915 111.53 16.7221 111.281 17.2005C111.07 17.612 110.908 18.0617 110.802 18.5593H120.342C120.246 18.0234 120.093 17.5354 119.883 17.1144C119.653 16.6264 119.347 16.2054 118.993 15.861C118.572 15.4591 118.065 15.1433 117.491 14.9328C116.917 14.7223 116.266 14.6171 115.567 14.6171C114.926 14.6171 114.314 14.7415 113.749 14.9615C113.175 15.1912 112.659 15.5261 112.218 15.9471V15.9375ZM128.293 12.9809C128.743 12.646 129.269 12.3781 129.891 12.1867C130.504 12.0049 131.221 11.8996 132.044 11.8996H133.633V14.9233H131.728C130.944 14.9233 130.312 15.0763 129.805 15.3538C129.308 15.6313 128.934 16.0236 128.657 16.502C128.36 17.0187 128.159 17.6407 128.035 18.32C127.911 19.009 127.863 19.7553 127.863 20.5112V29.3524H124.772V11.8805H127.585L127.71 13.4784L127.844 13.3445C127.987 13.2105 128.131 13.0765 128.293 12.9617V12.9809ZM136.867 9.45969C136.694 9.63192 136.484 9.77544 136.254 9.86156C136.034 9.94768 135.785 10.0051 135.527 10.0051C135.269 10.0051 135.03 9.95724 134.8 9.86156C134.57 9.76588 134.36 9.63192 134.188 9.45969C134.015 9.28745 133.872 9.07695 133.786 8.84731C133.7 8.62723 133.642 8.37845 133.642 8.12011C133.642 7.86176 133.69 7.61298 133.786 7.39291C133.881 7.16326 134.015 6.95276 134.188 6.7901C134.36 6.61786 134.57 6.48391 134.8 6.38822C135.02 6.29254 135.269 6.2447 135.527 6.2447C135.785 6.2447 136.025 6.29254 136.254 6.38822C136.484 6.48391 136.694 6.61786 136.867 6.7901C137.039 6.96233 137.182 7.17283 137.269 7.40248C137.355 7.62255 137.412 7.87133 137.412 8.12968C137.412 8.38802 137.364 8.6368 137.278 8.85688C137.182 9.08652 137.048 9.28745 136.876 9.46925L136.867 9.45969ZM136.321 29.362H133.977V11.8901H137.068V29.362H136.331H136.321ZM143.029 12.7417C143.565 12.4068 144.167 12.1388 144.837 11.957C145.469 11.7848 146.158 11.6987 146.914 11.6987C147.985 11.6987 148.99 11.8709 149.889 12.2441C150.75 12.5981 151.516 13.1244 152.147 13.8516C152.731 14.5214 153.2 15.3538 153.516 16.3585C153.812 17.3058 153.975 18.4062 153.975 19.6692V29.362H150.884V19.7266C150.884 18.8846 150.789 18.1478 150.597 17.5163C150.406 16.8752 150.129 16.3394 149.774 15.9184C149.42 15.5069 148.98 15.1912 148.473 14.9807C147.956 14.7702 147.354 14.6649 146.674 14.6649C145.947 14.6649 145.287 14.7989 144.713 15.0668C144.129 15.3347 143.622 15.727 143.211 16.2341C142.78 16.7604 142.455 17.411 142.225 18.1765C142.005 18.9324 141.89 19.7936 141.89 20.7409V29.362H138.8V11.8901H141.613L141.756 13.8037C141.9 13.6507 142.053 13.4976 142.215 13.354C142.474 13.1244 142.751 12.9235 143.048 12.7321L143.029 12.7417ZM167.246 12.8373C167.562 13.0383 167.859 13.2679 168.136 13.5167C168.309 13.6794 168.481 13.842 168.634 14.0238L168.777 11.8901H171.6V27.6397C171.6 28.9888 171.428 30.1753 171.093 31.1896C170.748 32.2134 170.222 33.0745 169.524 33.773C168.825 34.4715 167.945 34.9882 166.902 35.3327C165.859 35.6772 164.653 35.8494 163.266 35.8494C162.204 35.8494 161.218 35.7154 160.319 35.4667C159.419 35.2083 158.625 34.8256 157.936 34.328C157.247 33.8209 156.673 33.1989 156.243 32.4526C155.822 31.735 155.535 30.9121 155.401 29.9839L155.276 29.1324H158.405L158.53 29.7256C158.635 30.2232 158.817 30.6729 159.075 31.0556C159.333 31.4479 159.668 31.7828 160.061 32.0507C160.472 32.3282 160.97 32.5483 161.525 32.6918C162.079 32.8353 162.711 32.9119 163.39 32.9119C164.261 32.9119 165.017 32.8162 165.658 32.6057C166.299 32.4048 166.825 32.0986 167.237 31.6871C167.658 31.2661 167.974 30.7207 168.184 30.0509C168.404 29.362 168.509 28.5391 168.509 27.5727V27.3048C168.375 27.4483 168.232 27.5918 168.088 27.7258C167.83 27.9554 167.562 28.1755 167.275 28.3669C166.701 28.7496 166.05 29.0462 165.352 29.2472C164.673 29.4385 163.926 29.5438 163.132 29.5438C161.926 29.5438 160.797 29.3237 159.793 28.9027C158.769 28.4817 157.869 27.8502 157.123 27.0369C156.396 26.2427 155.822 25.2859 155.429 24.1855C155.056 23.1234 154.855 21.9178 154.855 20.6069C154.855 19.3247 155.066 18.1382 155.439 17.0857C155.831 15.9853 156.415 15.0285 157.152 14.2343C157.898 13.421 158.798 12.7895 159.821 12.3589C160.816 11.9379 161.936 11.7083 163.122 11.7083C163.907 11.7083 164.634 11.8039 165.314 11.9953C166.012 12.1867 166.663 12.4737 167.237 12.8469L167.246 12.8373ZM159.467 24.9797C159.936 25.4964 160.501 25.9174 161.151 26.1949C161.783 26.4628 162.491 26.6159 163.266 26.6159C164.031 26.6159 164.749 26.4723 165.381 26.1949C166.031 25.9174 166.596 25.5059 167.065 24.9892C167.543 24.463 167.916 23.8123 168.175 23.066C168.423 22.3388 168.557 21.5255 168.557 20.6356C168.557 19.7362 168.423 18.9133 168.175 18.1765C167.916 17.4302 167.543 16.77 167.065 16.2341C166.596 15.7079 166.031 15.2964 165.39 15.0189C164.759 14.7415 164.051 14.5979 163.276 14.5979C162.5 14.5979 161.792 14.7415 161.161 15.0189C160.51 15.2964 159.946 15.7079 159.477 16.2341C158.998 16.77 158.625 17.4206 158.367 18.1669C158.118 18.8941 157.984 19.717 157.984 20.6069C157.984 21.4968 158.118 22.3196 158.367 23.0564C158.625 23.8027 158.998 24.4534 159.477 24.9892L159.467 24.9797ZM177.714 12.8373C178.288 12.4737 178.929 12.1771 179.628 11.9857C180.298 11.8039 181.015 11.6987 181.79 11.6987C182.996 11.6987 184.125 11.9188 185.13 12.3398C186.154 12.7608 187.053 13.3923 187.799 14.1961C188.527 14.9807 189.101 15.9375 189.493 17.0379C189.866 18.1 190.067 19.296 190.067 20.5973C190.067 21.8795 189.857 23.066 189.474 24.1281C189.082 25.2284 188.498 26.1949 187.761 26.9986C187.015 27.8119 186.115 28.453 185.092 28.8836C184.096 29.3046 182.977 29.5342 181.79 29.5342C181.006 29.5342 180.269 29.4385 179.59 29.2567C178.891 29.0654 178.241 28.7879 177.666 28.4243C177.351 28.2234 177.054 28.0033 176.786 27.7641C176.614 27.611 176.451 27.4483 176.298 27.2761L176.155 29.3524H173.332V5.79498H176.423V13.909C176.566 13.7559 176.719 13.6124 176.872 13.4689C177.131 13.2392 177.418 13.0287 177.724 12.8278L177.714 12.8373ZM177.867 24.9797C178.336 25.5059 178.901 25.9174 179.542 26.1949C180.173 26.4628 180.891 26.6159 181.656 26.6159C182.422 26.6159 183.14 26.4723 183.771 26.1949C184.422 25.9174 184.986 25.5059 185.455 24.9797C185.934 24.4438 186.307 23.7932 186.565 23.0468C186.814 22.3196 186.948 21.4968 186.948 20.5973C186.948 19.7075 186.814 18.8846 186.565 18.1574C186.307 17.411 185.934 16.7604 185.455 16.2246C184.986 15.6983 184.422 15.2869 183.771 15.0094C183.14 14.7415 182.432 14.5884 181.666 14.5884C180.901 14.5884 180.193 14.7319 179.561 15.0094C178.91 15.2869 178.346 15.6983 177.877 16.2246C177.399 16.7604 177.025 17.411 176.767 18.1478C176.518 18.875 176.384 19.6883 176.384 20.5686C176.384 21.4681 176.518 22.2909 176.767 23.0277C177.025 23.774 177.399 24.4343 177.867 24.9701V24.9797ZM205.444 26.3001C205.472 26.3288 205.53 26.3575 205.606 26.3671C205.702 26.3862 205.836 26.3958 205.989 26.3958H207.329V29.362H205.644C205.07 29.362 204.582 29.295 204.152 29.1515C203.721 29.008 203.358 28.7879 203.071 28.4913C202.898 28.3095 202.755 28.1085 202.64 27.8885C202.573 27.7449 202.506 27.6014 202.458 27.4387C202.276 27.6205 202.085 27.8023 201.884 27.965C201.607 28.1851 201.31 28.3956 200.985 28.5774C200.42 28.8931 199.789 29.1419 199.09 29.3142C198.42 29.4768 197.693 29.5629 196.889 29.5629C195.961 29.5629 195.1 29.4385 194.335 29.2089C193.55 28.9697 192.871 28.6157 192.306 28.1564C191.722 27.6875 191.273 27.1134 190.967 26.4436C190.67 25.793 190.507 25.0562 190.507 24.2525C190.507 23.3817 190.67 22.5971 190.995 21.9082C191.321 21.2193 191.809 20.626 192.44 20.138C193.043 19.6788 193.78 19.3343 194.65 19.0951C195.492 18.8654 196.468 18.7506 197.55 18.7506H202.229V18.1C202.229 17.545 202.142 17.0474 201.98 16.6169C201.817 16.1863 201.568 15.8227 201.243 15.5356C200.908 15.239 200.497 15.0094 199.999 14.8563C199.502 14.7032 198.927 14.6171 198.277 14.6171C197.693 14.6171 197.167 14.684 196.708 14.7989C196.229 14.9233 195.818 15.1051 195.464 15.3443C195.129 15.5739 194.842 15.8514 194.631 16.1767C194.411 16.502 194.258 16.8752 194.172 17.2771L194.048 17.8703H190.986L191.1 17.0283C191.215 16.2054 191.474 15.4591 191.866 14.8084C192.258 14.1386 192.794 13.5741 193.435 13.1053C194.067 12.6555 194.803 12.3015 195.626 12.0719C196.44 11.8422 197.339 11.7178 198.325 11.7178C199.415 11.7178 200.382 11.8614 201.233 12.1388C202.095 12.4163 202.841 12.8469 203.444 13.3923C204.056 13.9568 204.525 14.6458 204.841 15.4495C205.147 16.2437 205.31 17.1527 205.31 18.1669V25.6112C205.31 25.8217 205.319 25.9843 205.348 26.1087C205.367 26.214 205.405 26.281 205.434 26.3192L205.444 26.3001ZM200.841 25.4485C201.291 25.0562 201.635 24.5682 201.865 24.0133C202.095 23.4583 202.219 22.8363 202.219 22.157V21.602H197.406C196.746 21.602 196.162 21.6594 195.674 21.7838C195.186 21.8986 194.784 22.0804 194.469 22.3005C194.182 22.5014 193.971 22.7598 193.827 23.066C193.684 23.3722 193.607 23.7358 193.607 24.1376C193.607 24.5204 193.684 24.8648 193.818 25.1615C193.961 25.4677 194.172 25.7356 194.44 25.9461C194.736 26.1757 195.1 26.3575 195.531 26.4819C195.961 26.6063 196.449 26.6733 196.995 26.6733C197.808 26.6733 198.545 26.5585 199.176 26.3575C199.836 26.147 200.391 25.8313 200.832 25.4389L200.841 25.4485ZM219.825 27.965C219.165 28.4817 218.409 28.8836 217.567 29.1515C216.744 29.4098 215.835 29.5534 214.868 29.5534C213.644 29.5534 212.524 29.3333 211.52 28.9219C210.486 28.5008 209.587 27.8693 208.85 27.0656C208.113 26.2714 207.539 25.3146 207.147 24.2142C206.764 23.1425 206.563 21.9465 206.563 20.6452C206.563 19.3534 206.774 18.1574 207.156 17.0857C207.549 15.9853 208.132 15.0189 208.879 14.2152C209.625 13.4114 210.534 12.7704 211.567 12.3398C212.572 11.9188 213.701 11.6987 214.916 11.6987C215.892 11.6987 216.801 11.8327 217.615 12.091C218.457 12.3589 219.203 12.7512 219.854 13.2583C220.514 13.775 221.059 14.4066 221.499 15.1433C221.93 15.8705 222.236 16.703 222.428 17.612L222.6 18.5018H219.442L219.308 17.9277C219.184 17.411 218.992 16.9422 218.734 16.5307C218.476 16.1193 218.15 15.7653 217.777 15.4782C217.404 15.1912 216.964 14.9711 216.476 14.818C215.998 14.6745 215.462 14.5979 214.888 14.5979C214.132 14.5979 213.433 14.7415 212.811 15.0189C212.18 15.2964 211.615 15.7079 211.165 16.2341C210.697 16.77 210.323 17.4302 210.075 18.1765C209.826 18.9133 209.702 19.7457 209.702 20.6452C209.702 21.535 209.835 22.3579 210.075 23.0851C210.323 23.8315 210.697 24.4725 211.156 25.0084C211.615 25.5251 212.17 25.9365 212.811 26.214C213.433 26.4819 214.132 26.6254 214.888 26.6254C215.462 26.6254 215.988 26.5489 216.466 26.3958C216.954 26.2427 217.395 26.0226 217.768 25.7356C218.141 25.4485 218.466 25.0945 218.715 24.6926C218.964 24.2907 219.155 23.8315 219.27 23.3243L219.404 22.7407H222.59L222.418 23.6209C222.246 24.5204 221.93 25.3433 221.499 26.0705C221.059 26.8072 220.504 27.4483 219.834 27.965H219.825ZM225.834 29.362H223.49V5.80455H226.58V20.3964L234.828 11.8901H238.866L231.661 19.3439L239.134 29.362H235.335L229.508 21.5829L226.571 24.5969V29.362H225.834ZM250.348 27.8885C249.678 28.4243 248.913 28.8453 248.071 29.1324C247.258 29.4098 246.377 29.5534 245.44 29.5534C244.205 29.5534 243.067 29.3333 242.043 28.9027C241 28.4721 240.091 27.8311 239.335 27.0177C238.598 26.214 238.014 25.2476 237.613 24.1281C237.23 23.0468 237.029 21.8317 237.029 20.5112C237.029 19.2482 237.23 18.0713 237.603 17.0187C237.986 15.9375 238.56 14.9807 239.277 14.1865C240.005 13.3923 240.885 12.7608 241.89 12.3302C242.866 11.9188 243.956 11.6891 245.133 11.6891C246.31 11.6891 247.401 11.8805 248.377 12.2632C249.363 12.646 250.224 13.2105 250.941 13.9473C251.649 14.6649 252.214 15.5452 252.606 16.5786C252.989 17.5641 253.209 18.6932 253.247 19.9467C253.257 20.0519 253.228 20.5016 253.219 20.6452V21.3819H240.186C240.234 22.1091 240.387 22.7789 240.617 23.3817C240.866 24.0324 241.21 24.6161 241.65 25.0945C242.091 25.5825 242.636 25.9652 243.258 26.2236C243.861 26.4723 244.54 26.6159 245.296 26.6159C245.87 26.6159 246.416 26.5297 246.913 26.3767C247.42 26.214 247.889 25.9748 248.291 25.6686C248.693 25.3624 249.037 24.9988 249.315 24.5682C249.592 24.1472 249.803 23.6688 249.937 23.1425L250.08 22.578H253.209L253.018 23.4774C252.826 24.3673 252.491 25.1997 252.042 25.9365C251.582 26.6828 251.008 27.3431 250.329 27.8885H250.348ZM241.842 15.9375C241.469 16.2915 241.153 16.7221 240.904 17.2005C240.694 17.612 240.531 18.0617 240.426 18.5593H249.965C249.87 18.0234 249.717 17.5354 249.506 17.1144C249.277 16.6264 248.97 16.2054 248.616 15.861C248.195 15.4591 247.688 15.1433 247.114 14.9328C246.54 14.7223 245.889 14.6171 245.191 14.6171C244.55 14.6171 243.937 14.7415 243.373 14.9615C242.799 15.1912 242.282 15.5261 241.842 15.9471V15.9375ZM258.644 12.7512C259.18 12.4163 259.783 12.1484 260.452 11.9666C261.084 11.7944 261.773 11.7083 262.529 11.7083C263.6 11.7083 264.605 11.8805 265.505 12.2537C266.366 12.6077 267.131 13.134 267.763 13.8612C268.346 14.5309 268.815 15.3634 269.131 16.3681C269.428 17.3154 269.59 18.4157 269.59 19.6788V29.3716H266.5V19.7362C266.5 18.8941 266.404 18.1574 266.213 17.5259C266.021 16.8848 265.744 16.3489 265.39 15.9279C265.036 15.5165 264.596 15.2007 264.088 14.9902C263.572 14.7797 262.969 14.6745 262.29 14.6745C261.562 14.6745 260.902 14.8084 260.328 15.0763C259.744 15.3443 259.237 15.7366 258.826 16.2437C258.395 16.77 258.07 17.4206 257.84 18.1861C257.62 18.942 257.505 19.8031 257.505 20.7504V29.3716H254.415V11.8996H257.228L257.371 13.8133C257.515 13.6602 257.668 13.5071 257.831 13.3636C258.089 13.134 258.366 12.933 258.663 12.7417L258.644 12.7512ZM282.613 12.8086C282.909 12.9904 283.177 13.1914 283.436 13.4114C283.589 13.5358 283.732 13.6698 283.866 13.8133V5.81412H286.957V29.3716H284.134L283.991 27.2187C283.828 27.4005 283.646 27.5823 283.464 27.7449C283.187 27.9937 282.871 28.2329 282.546 28.4339C281.972 28.7975 281.34 29.0749 280.642 29.2663C279.982 29.4481 279.254 29.5438 278.489 29.5438C277.283 29.5438 276.154 29.3237 275.149 28.9027C274.126 28.4817 273.226 27.8502 272.48 27.0369C271.753 26.2427 271.179 25.2859 270.786 24.1855C270.413 23.1234 270.212 21.9178 270.212 20.6069C270.212 19.3343 270.423 18.1478 270.805 17.0857C271.198 15.9853 271.781 15.0285 272.518 14.2248C273.265 13.4114 274.174 12.7799 275.188 12.3398C276.183 11.9188 277.293 11.6891 278.489 11.6891C279.273 11.6891 280.01 11.7848 280.68 11.9666C281.379 12.158 282.029 12.4355 282.603 12.7895L282.613 12.8086ZM274.824 24.9892C275.293 25.5059 275.858 25.9269 276.508 26.2044C277.14 26.4723 277.848 26.6254 278.623 26.6254C279.388 26.6254 280.106 26.4819 280.737 26.2044C281.388 25.9269 281.953 25.5155 282.421 24.9988C282.9 24.4725 283.273 23.8219 283.531 23.0755C283.78 22.3483 283.914 21.535 283.914 20.6452C283.914 19.7553 283.78 18.9229 283.531 18.1957C283.273 17.4493 282.9 16.7891 282.421 16.2533C281.953 15.727 281.388 15.3156 280.737 15.0285C280.106 14.751 279.398 14.6075 278.632 14.6075C277.867 14.6075 277.159 14.751 276.527 15.0285C275.877 15.306 275.312 15.7174 274.843 16.2437C274.365 16.7795 273.992 17.4302 273.733 18.1765C273.485 18.9037 273.351 19.7266 273.351 20.6165C273.351 21.5063 273.485 22.3292 273.733 23.066C273.992 23.8123 274.365 24.463 274.843 24.9988L274.824 24.9892Z" fill="url(#paint0_linear_88_1018)"/>
<path fill-rule="evenodd" clip-rule="evenodd" d="M7.12845 24.7022C10.0372 26.3958 13.0704 28.2042 15.9697 29.7734C17.3667 30.5294 18.0556 30.5485 19.0411 30.0988C19.4813 29.8978 19.9693 29.6108 20.6104 29.2568L24.5047 27.0847C26.0739 26.2044 27.9493 25.2476 29.442 24.3099C30.0735 23.908 30.3988 23.554 29.7291 22.9607C29.3368 22.6163 28.6191 22.1857 27.5379 21.5925L19.9501 17.2867C18.1704 16.2341 17.8164 16.2915 16.0366 17.2771L6.98492 22.3484C6.62132 22.5684 6.26729 22.7311 5.92283 22.9799C5.08081 23.5923 6.6596 24.4247 7.11888 24.6926L7.12845 24.7022Z" fill="#342DB0"/>
<path fill-rule="evenodd" clip-rule="evenodd" d="M7.11966 21.2001C10.0285 22.8938 13.0616 24.7022 15.9609 26.2714C17.3579 27.0273 18.0468 27.0465 19.0323 26.5967C19.4725 26.3958 19.9605 26.1087 20.6016 25.7547L24.4959 23.5827C26.0651 22.7024 27.9405 21.7455 29.4332 20.8078C30.0647 20.406 30.3901 20.0519 29.7203 19.4587C29.328 19.1142 28.6103 18.6837 27.5291 18.0904L19.9413 13.7846C18.1616 12.7321 17.8076 12.7895 16.0279 13.7751L6.97613 18.8463C6.61253 19.0664 6.2585 19.2291 5.91404 19.4778C5.07202 20.0902 6.65081 20.9227 7.11009 21.1906L7.11966 21.2001Z" fill="#8906A2" fill-opacity="0.701961"/>
<path fill-rule="evenodd" clip-rule="evenodd" d="M7.11966 17.3441C10.0285 19.0377 13.0616 20.8461 15.9609 22.4153C17.3579 23.1712 18.0468 23.1904 19.0323 22.7407C19.4725 22.5397 19.9605 22.2527 20.6016 21.8986L24.4959 19.7266C26.0651 18.8463 27.9405 17.8895 29.4332 16.9518C30.0647 16.5499 30.3901 16.1959 29.7203 15.6026C29.328 15.2582 28.6103 14.8276 27.5291 14.2343L19.9413 9.92855C18.1616 8.87603 17.8076 8.93344 16.0279 9.91898L6.97613 14.9902C6.61253 15.2103 6.2585 15.373 5.91404 15.6218C5.07202 16.2341 6.65081 17.0666 7.11009 17.3345L7.11966 17.3441Z" fill="#242099"/>
<defs>
<linearGradient id="paint0_linear_88_1018" x1="170.05" y1="-17.9347" x2="153.544" y2="81.5003" gradientUnits="userSpaceOnUse">
<stop stop-color="#322EB0"/>
<stop offset="1" stop-color="#8F03A1"/>
</linearGradient>
</defs>
</svg>
